REM DIRINDEX 1\2,1\3,1\4,1\5
REM DIRNAME folder01,folder02,folder03,folder04,folder05
TITLE ""
FILE "1800_096.mp3" MP3
  TRACK 01 AUDIO
    TITLE "2:cjc044_2621"
    INDEX 01 00:00:00
  TRACK 02 AUDIO
    TITLE "0:"
    INDEX 01 00:01:13
  TRACK 03 AUDIO
    TITLE "3:cjc044_2622"
    INDEX 01 00:01:69
  TRACK 04 AUDIO
    TITLE "0:"
    INDEX 01 00:03:27
  TRACK 05 AUDIO
    TITLE "4:cjc044_2623"
    INDEX 01 00:04:09
  TRACK 06 AUDIO
    TITLE "0:"
    INDEX 01 00:05:38
  TRACK 07 AUDIO
    TITLE "5:cjc044_2624"
    INDEX 01 00:06:12
  TRACK 08 AUDIO
    TITLE "0:"
    INDEX 01 00:10:10
  TRACK 09 AUDIO
    TITLE "2:cjc044_2625"
    INDEX 01 00:11:72
  TRACK 10 AUDIO
    TITLE "0:"
    INDEX 01 00:12:73
  TRACK 11 AUDIO
    TITLE "3:cjc044_2626"
    INDEX 01 00:13:55
  TRACK 12 AUDIO
    TITLE "0:"
    INDEX 01 00:14:51
  TRACK 13 AUDIO
    TITLE "4:cjc044_2627"
    INDEX 01 00:15:34
  TRACK 14 AUDIO
    TITLE "0:"
    INDEX 01 00:16:32
  TRACK 15 AUDIO
    TITLE "5:cjc044_2628"
    INDEX 01 00:17:21
  TRACK 16 AUDIO
    TITLE "0:"
    INDEX 01 00:19:46
  TRACK 17 AUDIO
    TITLE "2:cjc044_2629"
    INDEX 01 00:21:33
  TRACK 18 AUDIO
    TITLE "0:"
    INDEX 01 00:22:56
  TRACK 19 AUDIO
    TITLE "3:cjc044_2630"
    INDEX 01 00:23:36
  TRACK 20 AUDIO
    TITLE "0:"
    INDEX 01 00:24:65
  TRACK 21 AUDIO
    TITLE "4:cjc044_2631"
    INDEX 01 00:25:48
  TRACK 22 AUDIO
    TITLE "0:"
    INDEX 01 00:26:71
  TRACK 23 AUDIO
    TITLE "5:cjc044_2632"
    INDEX 01 00:27:55
  TRACK 24 AUDIO
    TITLE "0:"
    INDEX 01 00:31:37
  TRACK 25 AUDIO
    TITLE "2:cjc044_2633"
    INDEX 01 00:33:19
  TRACK 26 AUDIO
    TITLE "0:"
    INDEX 01 00:34:32
  TRACK 27 AUDIO
    TITLE "3:cjc044_2634"
    INDEX 01 00:35:10
  TRACK 28 AUDIO
    TITLE "0:"
    INDEX 01 00:36:11
  TRACK 29 AUDIO
    TITLE "4:cjc044_2635"
    INDEX 01 00:36:66
  TRACK 30 AUDIO
    TITLE "0:"
    INDEX 01 00:38:08
  TRACK 31 AUDIO
    TITLE "5:cjc044_2636"
    INDEX 01 00:38:65
  TRACK 32 AUDIO
    TITLE "0:"
    INDEX 01 00:42:18
  TRACK 33 AUDIO
    TITLE "2:cjc044_2637"
    INDEX 01 00:43:70
  TRACK 34 AUDIO
    TITLE "0:"
    INDEX 01 00:45:47
  TRACK 35 AUDIO
    TITLE "3:cjc044_2638"
    INDEX 01 00:46:25
  TRACK 36 AUDIO
    TITLE "0:"
    INDEX 01 00:47:27
  TRACK 37 AUDIO
    TITLE "4:cjc044_2639"
    INDEX 01 00:48:02
  TRACK 38 AUDIO
    TITLE "0:"
    INDEX 01 00:49:53
  TRACK 39 AUDIO
    TITLE "5:cjc044_2640"
    INDEX 01 00:50:35
  TRACK 40 AUDIO
    TITLE "0:"
    INDEX 01 00:54:30
  TRACK 41 AUDIO
    TITLE "2:cjc044_2641"
    INDEX 01 00:56:12
  TRACK 42 AUDIO
    TITLE "0:"
    INDEX 01 00:57:25
  TRACK 43 AUDIO
    TITLE "3:cjc044_2642"
    INDEX 01 00:58:07
  TRACK 44 AUDIO
    TITLE "0:"
    INDEX 01 00:59:65
  TRACK 45 AUDIO
    TITLE "4:cjc044_2643"
    INDEX 01 01:00:55
  TRACK 46 AUDIO
    TITLE "0:"
    INDEX 01 01:01:66
  TRACK 47 AUDIO
    TITLE "5:cjc044_2644"
    INDEX 01 01:02:46
  TRACK 48 AUDIO
    TITLE "0:"
    INDEX 01 01:06:22
  TRACK 49 AUDIO
    TITLE "2:cjc044_2645"
    INDEX 01 01:08:15
  TRACK 50 AUDIO
    TITLE "0:"
    INDEX 01 01:09:30
  TRACK 51 AUDIO
    TITLE "3:cjc044_2646"
    INDEX 01 01:10:10
  TRACK 52 AUDIO
    TITLE "0:"
    INDEX 01 01:10:73
  TRACK 53 AUDIO
    TITLE "4:cjc044_2647"
    INDEX 01 01:11:62
  TRACK 54 AUDIO
    TITLE "0:"
    INDEX 01 01:13:02
  TRACK 55 AUDIO
    TITLE "5:cjc044_2648"
    INDEX 01 01:13:55
  TRACK 56 AUDIO
    TITLE "0:"
    INDEX 01 01:17:57
  TRACK 57 AUDIO
    TITLE "2:cjc044_2649"
    INDEX 01 01:19:38
  TRACK 58 AUDIO
    TITLE "0:"
    INDEX 01 01:21:02
  TRACK 59 AUDIO
    TITLE "3:cjc044_2650"
    INDEX 01 01:21:67
  TRACK 60 AUDIO
    TITLE "0:"
    INDEX 01 01:22:74
  TRACK 61 AUDIO
    TITLE "4:cjc044_2651"
    INDEX 01 01:23:60
  TRACK 62 AUDIO
    TITLE "0:"
    INDEX 01 01:25:25
  TRACK 63 AUDIO
    TITLE "5:cjc044_2652"
    INDEX 01 01:25:68
  TRACK 64 AUDIO
    TITLE "0:"
    INDEX 01 01:29:41
  TRACK 65 AUDIO
    TITLE "2:cjc044_2653"
    INDEX 01 01:31:24
  TRACK 66 AUDIO
    TITLE "0:"
    INDEX 01 01:32:37
  TRACK 67 AUDIO
    TITLE "3:cjc044_2654"
    INDEX 01 01:33:21
  TRACK 68 AUDIO
    TITLE "0:"
    INDEX 01 01:34:38
  TRACK 69 AUDIO
    TITLE "4:cjc044_2655"
    INDEX 01 01:35:20
  TRACK 70 AUDIO
    TITLE "0:"
    INDEX 01 01:36:33
  TRACK 71 AUDIO
    TITLE "5:cjc044_2656"
    INDEX 01 01:37:19
  TRACK 72 AUDIO
    TITLE "0:"
    INDEX 01 01:40:11
